# xmcd
#
# Track frame offsets:
#	150
#	11570
#	22812
#	34180
#	47415
#	63085
#	73965
#	85167
#	97270
#	113352
#	125230
#	137585
#	148180
#	165385
#	179022
#	194382
#	210715
#
# Disc length: 2953 seconds
#
# Revision: 0
# Processed by: cddbd v1.4PL0 Copyright (c) Steve Scherf et al.
# Submitted via: audiograbber 1.81.03
#
DISCID=f00b8711
DTITLE=Waylon Jennings - Legends - Disk Three
DYEAR=2002
DGENRE=Country
TTITLE0=You Ask Me To
TTITLE1=Black Rose
TTITLE2=Rainy Day Woman
TTITLE3=I Recall a Gypsy Woman
TTITLE4=Oklahoma Sunshine
TTITLE5=Let's Turn Back The Years
TTITLE6=Walkin'
TTITLE7=Cloudy Days
TTITLE8=Bob Wills Is Still The King
TTITLE9=Omaha
TTITLE10=We Had It All
TTITLE11=Low Down Freedom
TTITLE12=San Fransico Mabel Jpy
TTITLE13=Pretend I Never Happened
TTITLE14=Midnight Rider
TTITLE15=I Can't Keep My Hands Off You
TTITLE16=Dreaming My Dreams WIth You
EXTD=
EXTT0=
EXTT1=
EXTT2=
EXTT3=
EXTT4=
EXTT5=
EXTT6=
EXTT7=
EXTT8=
EXTT9=
EXTT10=
EXTT11=
EXTT12=
EXTT13=
EXTT14=
EXTT15=
EXTT16=
PLAYORDER=
